{
  "asset": {
    "version": "2.0",
    "generator": "babylon.js glTF exporter for 3ds max 2018 v20190712.1"
  },
  "scene": 0,
  "scenes": [
    {
      "nodes": [
        0,
        1,
        2,
        3
      ],
      "extensions": {}
    }
  ],
  "nodes": [
    {
      "mesh": 0,
      "translation": [
        0.00174313784,
        0,
        0.000682078535
      ],
      "rotation": [
        0,
        0,
        0,
        1
      ],
      "scale": [
        0.0363477,
        0.0363477,
        0.0363477
      ],
      "name": "Trunk_C"
    },
    {
      "mesh": 1,
      "translation": [
        0.00174313784,
        0,
        0.000682078535
      ],
      "rotation": [
        0,
        0,
        0,
        1
      ],
      "scale": [
        0.0363477,
        0.0363477,
        0.0363477
      ],
      "name": "Trunk_A"
    },
    {
      "mesh": 2,
      "translation": [
        0.00174313784,
        0,
        0.000682078535
      ],
      "rotation": [
        0,
        0,
        0,
        1
      ],
      "scale": [
        0.0363477,
        0.0363477,
        0.0363477
      ],
      "name": "Trunk_B"
    },
    {
      "translation": [
        0,
        0,
        0
      ],
      "rotation": [
        0,
        0,
        0,
        1
      ],
      "scale": [
        1,
        1,
        1
      ],
      "name": "Default light"
    }
  ],
  "meshes": [
    {
      "primitives": [
        {
          "attributes": {
            "POSITION": 1,
            "NORMAL": 2,
            "TEXCOORD_0": 3
          },
          "indices": 0,
          "mode": 4,
          "material": 0
        }
      ],
      "name": "Trunk_C"
    },
    {
      "primitives": [
        {
          "attributes": {
            "POSITION": 5,
            "NORMAL": 6,
            "TEXCOORD_0": 7
          },
          "indices": 4,
          "mode": 4,
          "material": 0
        }
      ],
      "name": "Trunk_A"
    },
    {
      "primitives": [
        {
          "attributes": {
            "POSITION": 9,
            "NORMAL": 10,
            "TEXCOORD_0": 11
          },
          "indices": 8,
          "mode": 4,
          "material": 0
        }
      ],
      "name": "Trunk_B"
    }
  ],
  "accessors": [
    {
      "bufferView": 0,
      "componentType": 5123,
      "count": 40320,
      "type": "SCALAR",
      "name": "accessorIndices"
    },
    {
      "bufferView": 1,
      "componentType": 5126,
      "count": 40320,
      "max": [
        2.56214,
        9.22841,
        2.23369336
      ],
      "min": [
        -2.10948682,
        5.13531,
        -2.33433485
      ],
      "type": "VEC3",
      "name": "accessorPositions"
    },
    {
      "bufferView": 1,
      "byteOffset": 483840,
      "componentType": 5126,
      "count": 40320,
      "type": "VEC3",
      "name": "accessorNormals"
    },
    {
      "bufferView": 2,
      "componentType": 5126,
      "count": 40320,
      "type": "VEC2",
      "name": "accessorUVs"
    },
    {
      "bufferView": 0,
      "byteOffset": 80640,
      "componentType": 5123,
      "count": 720,
      "type": "SCALAR",
      "name": "accessorIndices"
    },
    {
      "bufferView": 1,
      "byteOffset": 967680,
      "componentType": 5126,
      "count": 720,
      "max": [
        0.614762,
        6.28881073,
        0.230469748
      ],
      "min": [
        -0.269745022,
        0,
        -0.229193658
      ],
      "type": "VEC3",
      "name": "accessorPositions"
    },
    {
      "bufferView": 1,
      "byteOffset": 976320,
      "componentType": 5126,
      "count": 720,
      "type": "VEC3",
      "name": "accessorNormals"
    },
    {
      "bufferView": 2,
      "byteOffset": 322560,
      "componentType": 5126,
      "count": 720,
      "type": "VEC2",
      "name": "accessorUVs"
    },
    {
      "bufferView": 0,
      "byteOffset": 82080,
      "componentType": 5123,
      "count": 6480,
      "type": "SCALAR",
      "name": "accessorIndices"
    },
    {
      "bufferView": 1,
      "byteOffset": 984960,
      "componentType": 5126,
      "count": 6480,
      "max": [
        1.60802877,
        8.51535,
        1.62263262
      ],
      "min": [
        -1.562637,
        4.327784,
        -2.00122
      ],
      "type": "VEC3",
      "name": "accessorPositions"
    },
    {
      "bufferView": 1,
      "byteOffset": 1062720,
      "componentType": 5126,
      "count": 6480,
      "type": "VEC3",
      "name": "accessorNormals"
    },
    {
      "bufferView": 2,
      "byteOffset": 328320,
      "componentType": 5126,
      "count": 6480,
      "type": "VEC2",
      "name": "accessorUVs"
    }
  ],
  "bufferViews": [
    {
      "buffer": 0,
      "byteLength": 95040,
      "name": "bufferViewScalar",
      "byteOffset": 0
    },
    {
      "buffer": 0,
      "byteOffset": 95040,
      "byteLength": 1140480,
      "byteStride": 12,
      "name": "bufferViewFloatVec3"
    },
    {
      "buffer": 0,
      "byteOffset": 1235520,
      "byteLength": 380160,
      "byteStride": 8,
      "name": "bufferViewFloatVec2"
    }
  ],
  "buffers": [
    {
      "uri": "TreeSingle_data.bin",
      "byteLength": 1615680
    }
  ],
  "materials": [
    {
      "pbrMetallicRoughness": {
        "baseColorFactor": [
          0.7,
          0.6934942,
          0.6513369,
          1
        ],
        "baseColorTexture": {
          "index": 0,
          "texCoord": 0
        },
        "metallicFactor": 0,
        "roughnessFactor": 0.459999979
      },
      "emissiveFactor": [
        0,
        0,
        0
      ],
      "alphaMode": "OPAQUE",
      "name": "Trunk"
    }
  ],
  "textures": [
    {
      "sampler": 0,
      "source": 0,
      "name": "EUPHBARK.jpg"
    }
  ],
  "images": [
    {
      "uri": "TreeSingle_img0.jpg"
    }
  ],
  "samplers": [
    {
      "magFilter": 9729,
      "minFilter": 9987,
      "wrapS": 10497,
      "wrapT": 10497
    }
  ]
}